HIERARCHY
ROOT Hips
{
	OFFSET 0.000000 8.830580 0.000000
	CHANNELS 6 Xposition Yposition Zposition Zrotation Yrotation Xrotation 
	JOINT Spine
	{
		OFFSET 0.000000 0.010000 0.000000
		CHANNELS 3 Zrotation Yrotation Xrotation
		JOINT Spine1
		{
			OFFSET 0.000000 2.459130 0.000000
			CHANNELS 3 Zrotation Yrotation Xrotation
			JOINT Neck
			{
				OFFSET 0.000000 2.484630 0.000000
				CHANNELS 3 Zrotation Yrotation Xrotation
				JOINT Head_virtual
				{
					OFFSET 0.000000 0.000000 0.000000
					CHANNELS 3 Zrotation Yrotation Xrotation
					JOINT Head
					{
						OFFSET 0.000000 0.927525 0.000000
						CHANNELS 3 Zrotation Yrotation Xrotation
						End Site
						{
							OFFSET 0.000000 0.000000 0.000000
						}
					}
				}
				JOINT LeftUpArm_virtual
				{
					OFFSET 0.000000 0.000000 0.000000
					CHANNELS 3 Zrotation Yrotation Xrotation
					JOINT LeftUpArm
					{
						OFFSET 1.248820 0.000000 0.000000
						CHANNELS 3 Zrotation Yrotation Xrotation
						JOINT LeftForeArm
						{
							OFFSET 2.597580 0.000000 0.000000
							CHANNELS 3 Zrotation Yrotation Xrotation
							JOINT LeftHand
							{
								OFFSET 2.455420 0.000000 0.000000
								CHANNELS 3 Zrotation Yrotation Xrotation
								End Site
								{
									OFFSET 0.000000 0.000000 0.000000
								}
							}
						}
					}
				}
				JOINT RightUpArm_virtual
				{
					OFFSET -0.000000 -0.000000 -0.000000
					CHANNELS 3 Zrotation Yrotation Xrotation
					JOINT RightUpArm
					{
						OFFSET -1.248820 -0.000000 -0.000000
						CHANNELS 3 Zrotation Yrotation Xrotation
						JOINT RightForeArm
						{
							OFFSET -2.597580 -0.000000 -0.000000
							CHANNELS 3 Zrotation Yrotation Xrotation
							JOINT RightHand
							{
								OFFSET -2.455420 -0.000000 -0.000000
								CHANNELS 3 Zrotation Yrotation Xrotation
								End Site
								{
									OFFSET 0.000000 0.000000 0.000000
								}
							}
						}
					}
				}
			}
		}
	}
	JOINT LeftUpLeg
	{
		OFFSET 1.271939 0.000000 0.000000
		CHANNELS 3 Zrotation Yrotation Xrotation
		JOINT LeftLowLeg
		{
			OFFSET 0.000000 -4.342910 0.000000
			CHANNELS 3 Zrotation Yrotation Xrotation
			JOINT LeftFoot
			{
				OFFSET 0.000000 -4.487670 0.000000
				CHANNELS 3 Zrotation Yrotation Xrotation
				JOINT LeftToeBase
				{
					OFFSET 0.000000 0.000000 1.515070
					CHANNELS 3 Zrotation Yrotation Xrotation
					End Site
					{
						OFFSET 0.000000 0.000000 0.000000
					}
				}
			}
		}
	}
	JOINT RightUpLeg
	{
		OFFSET -1.271939 0.000000 0.000000
		CHANNELS 3 Zrotation Yrotation Xrotation
		JOINT RightLowLeg
		{
			OFFSET 0.000000 -4.342910 0.000000
			CHANNELS 3 Zrotation Yrotation Xrotation
			JOINT RightFoot
			{
				OFFSET 0.000000 -4.487670 0.000000
				CHANNELS 3 Zrotation Yrotation Xrotation
				JOINT RightToeBase
				{
					OFFSET 0.000000 0.000000 1.515070
					CHANNELS 3 Zrotation Yrotation Xrotation
					End Site
					{
						OFFSET 0.000000 0.000000 0.000000
					}
				}
			}
		}
	}
}
MOTION
Frames: 5
Frame Time: 0.041667
-15.064100 8.937465 31.334708 -179.289078 -50.933273 177.037927 1.615278 0.246053 -14.200334 -1.663839 5.883185 24.334001 0.000000 0.000000 0.000000 -46.728586 49.252104 -6.996852 -15.968067 -13.764636 -87.105145 -26.191099 0.093206 9.595001 -38.830700 -15.888700 32.865101 -180.000000 -60.212997 180.000000 16.671400 12.384500 41.000599 26.896200 -4.113630 5.121002 39.343601 -0.487463 23.257299 180.000000 68.906998 180.000000 27.975300 0.535354 -62.572201 10.044289 -39.540979 -8.540917 0.000000 0.000000 28.398001 -18.550142 0.640263 -2.311344 0.000000 0.000000 -26.253600 1.623198 15.217002 1.727589 0.000000 0.000000 26.165400 28.761899 0.938254 -10.329500 0.000000 0.000000 -19.654390 
-14.960543 8.930427 31.288822 -177.772773 -53.890307 175.688809 1.848518 -0.749406 -13.592285 -0.968406 5.194258 24.711329 0.000000 0.000000 0.000000 -46.642501 48.798862 -7.475857 -15.963516 -14.223429 -87.001369 -26.110901 -0.297066 10.016998 -38.574402 -16.387501 32.900299 -180.000000 -60.083000 180.000000 17.778400 11.824400 41.068600 26.977301 -4.215580 4.924011 38.864899 -0.403819 23.446699 180.000000 68.484001 180.000000 27.370701 0.612146 -63.684399 12.012279 -40.266798 -11.052171 0.000000 0.000000 30.600100 -19.681939 0.755977 -2.071180 0.000000 0.000000 -26.584200 3.145162 12.632682 2.375713 0.000000 0.000000 25.142700 28.286029 0.086629 -10.254412 0.000000 0.000000 -19.640500 
-14.853945 8.916396 31.249975 -175.751592 -56.945989 174.459989 2.108992 -1.872034 -13.440508 0.183488 4.595316 25.063704 0.000000 0.000000 0.000000 -46.852427 48.299979 -8.094495 -15.963620 -14.804333 -86.714794 -26.110600 -0.851909 9.799988 -38.703098 -16.430300 33.522400 180.000000 -59.858002 -180.000000 19.173800 11.207200 41.455002 27.160299 -4.466200 5.203003 37.684399 0.244367 23.326300 -180.000000 67.833000 -180.000000 26.580200 0.689732 -64.952904 14.564454 -39.693183 -14.597962 0.000000 0.000000 32.979000 -18.567911 1.162684 -1.690448 0.000000 0.000000 -26.755700 4.594861 9.953955 2.323240 0.000000 0.000000 24.048500 27.830717 -0.668992 -10.195803 0.000000 0.000000 -19.543730 
-14.743068 8.898771 31.218900 -173.838148 -59.755423 173.291503 2.351627 -2.668282 -13.033279 1.167783 4.194844 25.068075 0.000000 0.000000 0.000000 -47.049649 47.856248 -8.743542 -16.080594 -15.302422 -86.419841 -26.176701 -1.292880 10.287994 -38.550098 -17.084900 33.563099 -180.000000 -59.613998 180.000000 20.237900 11.017400 42.135300 27.013500 -4.566690 5.515991 37.692001 0.377629 22.473900 -180.000000 67.371002 -180.000000 27.316900 0.706229 -65.276001 16.473587 -38.319929 -17.673055 0.000000 0.000000 34.750900 -19.344376 1.625328 -1.493700 0.000000 0.000000 -26.387900 5.796439 7.515253 1.973075 0.000000 0.000000 23.206200 27.494951 -1.215893 -10.327550 0.000000 0.000000 -19.347000 
-14.640656 8.881072 31.191540 -172.025646 -62.411324 171.920003 2.652107 -3.176738 -12.465362 1.909778 3.894939 25.063272 0.000000 0.000000 0.000000 -47.157311 47.524295 -9.544057 -16.741137 -15.453445 -85.821104 -26.159800 -1.759260 11.218994 -38.459099 -17.941401 33.104500 -180.000000 -59.434998 180.000000 20.675900 10.935800 42.207401 26.851700 -4.813530 5.351013 38.100800 0.145394 21.967800 -180.000000 66.945999 -180.000000 27.724701 0.515949 -65.195900 17.394513 -36.075629 -19.933549 0.000000 0.000000 36.109299 -19.394313 2.620707 -1.327589 0.000000 0.000000 -25.929000 6.823815 5.342043 1.710270 0.000000 0.000000 22.605700 27.236271 -1.734886 -10.592010 0.000000 0.000000 -19.139800 
